REM DIRINDEX 1\2,1\3,1\4
REM DIRNAME folder01,folder02,folder03,folder04
TITLE ""
FILE "CD1Track04.mp3" MP3
  TRACK 01 AUDIO
    TITLE "0:"
    INDEX 01 00:00:00
  TRACK 02 AUDIO
    TITLE "2:cjc075_0020"
    INDEX 01 00:00:19
  TRACK 03 AUDIO
    TITLE "2:cjc075_0021"
    INDEX 01 00:11:27
  TRACK 04 AUDIO
    TITLE "2:cjc075_0022"
    INDEX 01 00:25:74
  TRACK 05 AUDIO
    TITLE "0:"
    INDEX 01 00:30:73
